<svg id="Layer_1" data-name="Layer 1" xmlns="http://www.w3.org/2000/svg" viewBox="0 0 100 100"><path d="M84.18,50.7a7.84,7.84,0,0,0,.15-1.45,8.93,8.93,0,0,0-1.72-5.15,8.49,8.49,0,0,0,0-10.26,8.94,8.94,0,0,0,1.73-5.13C84.33,20.87,72.9,14.4,56.55,13A1.43,1.43,0,0,0,56,13l-7-2.91a1.47,1.47,0,0,0-1.52.22l-3.17,2.57c-16.6,1.26-28.59,7.86-28.59,15.8a8.9,8.9,0,0,0,1.74,5.12,8.52,8.52,0,0,0,0,10.29,8.92,8.92,0,0,0-1.72,5.13,7.83,7.83,0,0,0,.14,1.45C7.55,55,3,60.67,3,66.75,3,79.79,23.64,90,50,90S97,79.79,97,66.75C97,60.67,92.45,55,84.18,50.7Zm-64.68,6c5.24,4.73,15.38,8.06,27.56,8.53h.06a1.51,1.51,0,0,0,.06-3c-15.72-.61-28.5-6.41-28.5-12.94a5.72,5.72,0,0,1,.81-2.79c4.36,4,12.19,6.94,22.12,8.07h.17a1.52,1.52,0,0,0,.17-3C28.47,50,18.68,44.71,18.68,39a5.63,5.63,0,0,1,.81-2.83c5.65,5.14,17.06,8.58,30.51,8.58h.52c0,3.72,0,11.3,0,12.34a4.11,4.11,0,0,0,4.35,4.39H55a4.07,4.07,0,0,0,4.34-3.57,84.08,84.08,0,0,0,.06-8.51c0-1.22,0-2.32,0-3.1a3.12,3.12,0,0,1,.46-2,2,2,0,0,1,1.42-.41h0c1.94,0,2.43,1,2.49,1.93,0,.34,0,2.88,0,5.33,0,3.41,0,7.65,0,9.76.07,3.51,1.88,5.34,5.41,5.42h.23c2.46,0,5.36-1,5.74-5.31.22-2.56,0-9.91,0-10.18,0-3.7,0-8.94,0-11.05a23.63,23.63,0,0,0,5.44-3.57A5.66,5.66,0,0,1,81.32,39c0,2.45-1.85,4.47-3.39,5.73a1.51,1.51,0,0,0,.94,2.69,1.54,1.54,0,0,0,.95-.34c.25-.2.47-.41.69-.61a5.59,5.59,0,0,1,.81,2.8c0,2.43-1.82,4.43-3.34,5.69a1.51,1.51,0,0,0,1,2.68,1.5,1.5,0,0,0,.95-.34c.22-.18.42-.37.63-.56a5.7,5.7,0,0,1,.81,2.8c0,6.27-12.59,13-31.32,13s-31.32-6.72-31.32-13A5.68,5.68,0,0,1,19.5,56.68ZM43.84,18.73l6.5,2.91a1.67,1.67,0,0,0,.61.13,1.53,1.53,0,0,0,.87-.28l4.43-3.15v2.75l-5.11,3.75-7.3-3.39Zm4.78-5.48,6,2.52-3.88,2.75L45.2,16l.34-.28a1.51,1.51,0,0,0,.62-.5ZM40.84,16.3s0,.07,0,.11v6a1.52,1.52,0,0,0,.88,1.38l9,4.17a1.52,1.52,0,0,0,.63.14,1.5,1.5,0,0,0,.88-.29l6.45-4.73a1.51,1.51,0,0,0,.62-1.22V16.31C72,18,81.32,23.13,81.32,28.71a6.46,6.46,0,0,1-1.78,4.15l0,0a18.67,18.67,0,0,1-6.06,4.28,1.52,1.52,0,0,0-1.37,1.37c0,.09,0,.25,0,12.29,0,.08.21,7.49,0,9.87-.13,1.49-.41,2.63-2.9,2.55-2.27-.05-2.45-1-2.47-2.44,0-2.08,0-6.3,0-9.69,0-3.77,0-5.23,0-5.58-.17-2.18-1.71-4.73-5.49-4.73h0a4.78,4.78,0,0,0-3.55,1.31,5.71,5.71,0,0,0-1.34,4.14c0,.79,0,1.91.05,3.14,0,2.66.11,7.12,0,8-.11.68-.32,1-1.4,1s-1.37-.35-1.38-1.4c0-.44,0-2.08,0-4.09a.57.57,0,0,0,0-.13V43.4h0a1.68,1.68,0,0,0-.63-1.29,1.59,1.59,0,0,0-1.08-.43L50,41.7c-18.73,0-31.32-6.72-31.32-13C18.68,23.12,28.12,18,40.84,16.3ZM50,87C26.15,87,6,77.71,6,66.75c0-4.83,3.86-9.49,10.89-13.21q.24.41.51.81a8.92,8.92,0,0,0-1.74,5.17c0,9,15.08,16,34.33,16s34.33-7,34.33-16a8.92,8.92,0,0,0-1.73-5.14,8.16,8.16,0,0,0,.52-.83c7,3.72,10.87,8.38,10.87,13.2C94,77.71,73.85,87,50,87Z"/></svg>