<svg id="Layer_1" data-name="Layer 1" xmlns="http://www.w3.org/2000/svg" viewBox="0 0 100 100"><path d="M72,35.73A23.84,23.84,0,0,1,78.3,50.91c0,.78,0,1.55,0,2.32v.46a1.5,1.5,0,0,0,3,0v-.48c0-.81,0-1.62,0-2.44A26.94,26.94,0,0,0,74.2,33.72a1.52,1.52,0,0,0-2.13-.1,1.49,1.49,0,0,0-.1,2.11Z"/><path d="M91,46.63A27.16,27.16,0,0,0,66.72,20.91c-1.15-.11-2.29-.17-3.42-.17a30.43,30.43,0,0,0-10.74,1.93A45.19,45.19,0,0,1,70.13,6.31a1.47,1.47,0,0,0,.65-2,1.5,1.5,0,0,0-2-.64A47.92,47.92,0,0,0,50.58,20.16c-1.79-1.28-10.53-7-21-5.45-7.28,1.09-13.68,5.46-19,13h0v0a.67.67,0,0,0-.07.11l-.08.13c0,.05,0,.1,0,.15s0,.08,0,.13,0,.1,0,.15,0,.09,0,.13,0,.1,0,.15a.66.66,0,0,1,0,.14c0,.05,0,.09,0,.14a.74.74,0,0,0,0,.14.67.67,0,0,0,.06.12l.06.14.09.11.09.12a1,1,0,0,0,.11.1l.1.09,0,0h0a25.85,25.85,0,0,0,3.19,2A25.64,25.64,0,0,0,9.14,45.66C9.05,47.08,9,48.48,9,49.87A62.82,62.82,0,0,0,20.43,85.78a29.22,29.22,0,0,0,5.27,6,19.51,19.51,0,0,0,7.22,3.89h0l.06,0h0a14.22,14.22,0,0,0,4.63.8,17,17,0,0,0,5.42-1h0c2.32-.73,4.35-1.83,6.33-2.61l.54-.19.15,0h0a23.85,23.85,0,0,0,12,3.59h.18c.25,0,.83-.07,1.68-.2a27.85,27.85,0,0,0,4.9-1.18,13.37,13.37,0,0,0,5-2.93h0A42.64,42.64,0,0,0,85,76.26a67,67,0,0,0,6-27.18C91,48.26,91,47.45,91,46.63Zm-61-29c8-1.2,15,2.51,17.82,4.25C36.56,35.46,24,32.86,17.35,30a1.51,1.51,0,0,0-.52-.23,28.73,28.73,0,0,1-2.94-1.54C18.53,22.12,23.94,18.58,30,17.66ZM82.22,75.07C79.76,80.67,76.6,85.71,72,89.67l-.1.1a8.4,8.4,0,0,1-2.53,1.69,21.28,21.28,0,0,1-4.74,1.45c-.71.13-1.33.22-1.78.27l-.52.06h-.13A20.77,20.77,0,0,1,51.43,90h0a2.2,2.2,0,0,0-1.22-.33,4.32,4.32,0,0,0-1.11.17c-.32.1-.61.2-.84.29-2.19.88-4.16,1.94-6.1,2.53h0a13.92,13.92,0,0,1-4.52.89,11.21,11.21,0,0,1-3.72-.66l-.08,0a16.43,16.43,0,0,1-6.18-3.33,26.31,26.31,0,0,1-4.73-5.4A59.81,59.81,0,0,1,12,49.87c0-1.32,0-2.66.13-4a22.52,22.52,0,0,1,4.74-12.78,29.4,29.4,0,0,0,10.94,2.17c6.47,0,13.64-2.33,20.23-9.11a6,6,0,0,0,2.11.41,3.62,3.62,0,0,0,1.56-.31h0A27.37,27.37,0,0,1,63.3,23.72a29.91,29.91,0,0,1,3.12.16A24.17,24.17,0,0,1,88,46.75c0,.78,0,1.55,0,2.33A63.93,63.93,0,0,1,82.22,75.07Z"/></svg>