<svg id="Layer_1" data-name="Layer 1" xmlns="http://www.w3.org/2000/svg" viewBox="0 0 100 100"><path d="M94.65,55.53C93.71,50.1,90,38.09,75.07,23.18,61.08,9.19,49.78,5.94,44,5.29c-2.79-.53-5.84-.71-7.27,2.91L5.38,87.79a5.25,5.25,0,0,0,6.83,6.83L91.78,63.28C95.9,61.65,95,57.24,94.65,55.53Zm-66.37-18a7,7,0,0,1,3,1.79,7.15,7.15,0,0,1-8.25,11.46ZM13.17,76l6.7,2.77a.46.46,0,0,1,.25.6L19.43,81a.43.43,0,0,1-.24.24.42.42,0,0,1-.35,0l-6.67-2.75Zm-2,16a2.36,2.36,0,0,1-3.06-3.06l3-7.68,6.62,2.73a3.19,3.19,0,0,0,1.28.26,3.38,3.38,0,0,0,1.29-.26,3.32,3.32,0,0,0,1.82-1.82l.69-1.66A3.37,3.37,0,0,0,21,76l-6.75-2.79L22,53.54a10,10,0,0,0,11.38-2,10.07,10.07,0,0,0-4-16.71l5.2-13.18h.13c.11,0,11-.6,26.89,15.3.84.84,1.63,1.66,2.38,2.48A11.51,11.51,0,1,0,75,55.15c2.92,6,3.27,9.88,3.3,10.3L57.86,73.51a7.76,7.76,0,1,0-12.75,2.78,7.55,7.55,0,0,0,2,1.45ZM66.31,42.58l.53.14a68.12,68.12,0,0,1,6.08,8.55s0,.06,0,.09l0,.4a8.6,8.6,0,1,1-6.57-9.18ZM47.16,74.23a4.85,4.85,0,1,1,6.87,0A4.86,4.86,0,0,1,47.16,74.23ZM90.71,60.57l-9.58,3.77c-.47-3.43-3.09-15-17.5-29.44-14-14-24.47-15.92-27.95-16.13l3.74-9.5a2,2,0,0,1,.86-1.16C40.86,8.05,54.4,6.63,73,25.24c10,10,14.6,18.5,16.75,23.91,2.3,5.82,2.29,9.36,2.29,9.42s0,.14,0,.21A1.89,1.89,0,0,1,90.71,60.57Z"/><path d="M24.84,62.41a7.76,7.76,0,1,0,11,0A7.79,7.79,0,0,0,24.84,62.41Zm8.93,8.92a4.86,4.86,0,1,1,0-6.87A4.87,4.87,0,0,1,33.77,71.33Z"/><path d="M46.75,40.57a2.06,2.06,0,0,0,.76.15,2,2,0,0,0,1.84-1.23l1.74-4.21A2,2,0,0,0,50,32.69L40,28.55a2,2,0,0,0-2.59,1.08l-1.74,4.2a2,2,0,0,0,1.08,2.6Zm-7-9L48.05,35l-1,2.5-8.32-3.44Z"/><path d="M47.39,49.27a2,2,0,0,0-1.08-2.59L42.1,44.94A2,2,0,0,0,39.51,46l-4.14,10a2,2,0,0,0,1.08,2.59l4.21,1.74a2,2,0,0,0,.75.15,2.07,2.07,0,0,0,.77-.15,2,2,0,0,0,1.07-1.08ZM42.2,47.13ZM40.91,57.34l-2.5-1L41.85,48l2.5,1Z"/></svg>