<svg id="Layer_1" data-name="Layer 1" xmlns="http://www.w3.org/2000/svg" viewBox="0 0 100 100"><path d="M94.48,20.71h-43L47.58,6.61A1.52,1.52,0,0,0,46.12,5.5H34.68a1.53,1.53,0,0,0,0,3.05H45l3.4,12.16H38.6a1.53,1.53,0,0,0,0,3.05h3.23l2.49,21.13a42.71,42.71,0,0,0-5.72-.38C21.72,44.51,8,54.29,8,66.31c0,.36,0,.71,0,1.07a5.59,5.59,0,0,0-4,5.37v6.89A5.6,5.6,0,0,0,8.89,85.2a14.71,14.71,0,0,0,1.61,5C12,93,14.35,94.5,17,94.5H80.18a5.08,5.08,0,0,0,5-4.58l7-66.16h2.23a1.53,1.53,0,0,0,0-3.05ZM38.6,47.56c15.22,0,27.6,8.41,27.6,18.75,0,.28,0,.56,0,.84H11q0-.42,0-.84C11,56,23.39,47.56,38.6,47.56ZM59.71,70.2l-4.63,4.69L50.91,70.2ZM7,79.64V72.75A2.55,2.55,0,0,1,9.56,70.2H46.83l7.07,7.93a1.49,1.49,0,0,0,1.08.5h0a1.51,1.51,0,0,0,1.08-.45l7.89-8h3.65a2.54,2.54,0,0,1,2.53,2.55v6.89a2.54,2.54,0,0,1-2.53,2.55H9.56A2.54,2.54,0,0,1,7,79.64ZM54.78,91.45H17c-3.16,0-4.6-3.72-5-6.21h53.5c-.26,2.18-1.65,6.21-5.29,6.21ZM89.2,23.76l-7,65.84a2.06,2.06,0,0,1-2,1.85h-14a11.78,11.78,0,0,0,2.34-6.28,5.61,5.61,0,0,0,4.69-5.53V72.75a5.6,5.6,0,0,0-4-5.37c0-.36,0-.71,0-1.07,0-9.83-9.2-18.17-21.79-20.87L44.89,23.76"/><path d="M79.61,62h.17a1.51,1.51,0,0,0,1.5-1.35L85,28.19a1.52,1.52,0,1,0-3-.35L78.27,60.32A1.52,1.52,0,0,0,79.61,62Z"/></svg>